HIERARCHY
ROOT Hips
{
	OFFSET 0.000000 83.214638 0.000000
	CHANNELS 6 Xposition Yposition Zposition Xrotation Yrotation Zrotation
	JOINT Pelvis
	{
		OFFSET 0.000000 0.000000 0.000000
		CHANNELS 3 Xrotation Yrotation Zrotation
		JOINT LeftUpLeg
		{
			OFFSET 8.479700 -4.795502 -0.379100
			CHANNELS 3 Xrotation Yrotation Zrotation
			JOINT LeftLeg
			{
				OFFSET 0.024144 -32.555107 0.112900
				CHANNELS 3 Xrotation Yrotation Zrotation
				JOINT LeftFoot
				{
					OFFSET -0.024144 -32.638630 -3.012600
					CHANNELS 3 Xrotation Yrotation Zrotation
					JOINT LeftToeBase
					{
						OFFSET 0.970200 -13.225400 11.864200
						CHANNELS 3 Xrotation Yrotation Zrotation
						End Site
						{
							OFFSET 0.000000 12.319262 0.000000
						}
					}
					JOINT LFootTongue
					{
						OFFSET 1.142400 -1.059800 6.665200
						CHANNELS 3 Xrotation Yrotation Zrotation
						End Site
						{
							OFFSET 0.000000 12.319262 0.000000
						}
					}
				}
				JOINT LeftPantLeg
				{
					OFFSET 0.918482 -16.533964 -2.284700
					CHANNELS 3 Xrotation Yrotation Zrotation
					End Site
					{
						OFFSET 0.350399 24.744368 0.000000
					}
				}
			}
		}
		JOINT RightUpLeg
		{
			OFFSET -8.479700 -4.795502 -0.379100
			CHANNELS 3 Xrotation Yrotation Zrotation
			JOINT RightLeg
			{
				OFFSET -0.023144 -32.555092 0.112900
				CHANNELS 3 Xrotation Yrotation Zrotation
				JOINT RightFoot
				{
					OFFSET 0.023144 -32.638641 -3.012700
					CHANNELS 3 Xrotation Yrotation Zrotation
					JOINT RightToeBase
					{
						OFFSET -0.970200 -13.225400 11.864200
						CHANNELS 3 Xrotation Yrotation Zrotation
						End Site
						{
							OFFSET 0.000000 12.319244 0.000000
						}
					}
					JOINT RFootTongue
					{
						OFFSET -1.142200 -1.059800 6.665200
						CHANNELS 3 Xrotation Yrotation Zrotation
						End Site
						{
							OFFSET 0.000000 12.319243 0.000000
						}
					}
				}
				JOINT RightPantLeg
				{
					OFFSET -0.919482 -16.533978 -2.284800
					CHANNELS 3 Xrotation Yrotation Zrotation
					End Site
					{
						OFFSET -0.350400 24.744419 0.000000
					}
				}
			}
		}
	}
	JOINT Spine
	{
		OFFSET 0.000000 7.722000 1.166200
		CHANNELS 3 Xrotation Yrotation Zrotation
		JOINT Spine1
		{
			OFFSET 0.000000 12.024101 0.248800
			CHANNELS 3 Xrotation Yrotation Zrotation
			JOINT Spine2
			{
				OFFSET 0.000000 11.502998 -0.491200
				CHANNELS 3 Xrotation Yrotation Zrotation
				JOINT Neck
				{
					OFFSET 0.000000 18.430702 -3.123100
					CHANNELS 3 Xrotation Yrotation Zrotation
					JOINT Head
					{
						OFFSET 0.000000 9.051102 1.034000
						CHANNELS 3 Xrotation Yrotation Zrotation
						JOINT HairB
						{
							OFFSET 0.208400 24.786102 24.822300
							CHANNELS 3 Xrotation Yrotation Zrotation
							End Site
							{
								OFFSET 0.000000 32.263779 0.000000
							}
						}
						JOINT HairA
						{
							OFFSET -7.081100 24.428299 23.196600
							CHANNELS 3 Xrotation Yrotation Zrotation
							End Site
							{
								OFFSET 0.000000 32.263779 0.000000
							}
						}
						JOINT Hat
						{
							OFFSET 16.728800 15.048294 -15.439601
							CHANNELS 3 Xrotation Yrotation Zrotation
							End Site
							{
								OFFSET 0.000000 32.263779 0.000000
							}
						}
					}
				}
				JOINT LeftShoulder
				{
					OFFSET 6.197800 13.665199 -4.064700
					CHANNELS 3 Xrotation Yrotation Zrotation
					JOINT LeftArm
					{
						OFFSET 7.778100 -0.187103 -1.709300
						CHANNELS 3 Xrotation Yrotation Zrotation
						JOINT LeftForeArm
						{
							OFFSET 22.049376 0.000000 0.000000
							CHANNELS 3 Xrotation Yrotation Zrotation
							JOINT LeftHand
							{
								OFFSET 23.009392 0.000000 0.000000
								CHANNELS 3 Xrotation Yrotation Zrotation
								JOINT LeftHandThumb1
								{
									OFFSET 3.507191 -2.063065 3.133727
									CHANNELS 3 Xrotation Yrotation Zrotation
									JOINT LeftHandThumb2
									{
										OFFSET 3.101337 -1.790558 1.790558
										CHANNELS 3 Xrotation Yrotation Zrotation
										JOINT LeftHandThumb3
										{
											OFFSET 3.058640 -1.765907 1.765906
											CHANNELS 3 Xrotation Yrotation Zrotation
											End Site
											{
												OFFSET -0.415260 3.926476 -0.049563
											}
										}
									}
								}
								JOINT LeftHandIndex1
								{
									OFFSET 11.334419 -0.901459 3.706815
									CHANNELS 3 Xrotation Yrotation Zrotation
									JOINT LeftHandIndex2
									{
										OFFSET 3.283112 0.000000 0.000000
										CHANNELS 3 Xrotation Yrotation Zrotation
										JOINT LeftHandIndex3
										{
											OFFSET 3.323853 0.000000 0.000000
											CHANNELS 3 Xrotation Yrotation Zrotation
											End Site
											{
												OFFSET -1.135597 3.097809 0.402452
											}
										}
									}
								}
								JOINT LeftHandMiddle1
								{
									OFFSET 11.335861 0.000000 0.000000
									CHANNELS 3 Xrotation Yrotation Zrotation
									JOINT LeftHandMiddle2
									{
										OFFSET 3.410492 0.000000 0.000000
										CHANNELS 3 Xrotation Yrotation Zrotation
										JOINT LeftHandMiddle3
										{
											OFFSET 3.312172 0.000000 0.000000
											CHANNELS 3 Xrotation Yrotation Zrotation
											End Site
											{
												OFFSET -1.150200 3.080154 0.400270
											}
										}
									}
								}
								JOINT LeftHandRing1
								{
									OFFSET 11.514786 -0.013176 -3.003090
									CHANNELS 3 Xrotation Yrotation Zrotation
									JOINT LeftHandRing2
									{
										OFFSET 3.053307 0.000000 0.000000
										CHANNELS 3 Xrotation Yrotation Zrotation
										JOINT LeftHandRing3
										{
											OFFSET 3.295807 0.000000 0.000000
											CHANNELS 3 Xrotation Yrotation Zrotation
											End Site
											{
												OFFSET -1.281006 3.013344 0.375733
											}
										}
									}
								}
								JOINT LeftHandPinky1
								{
									OFFSET 10.518692 -0.960396 -5.730441
									CHANNELS 3 Xrotation Yrotation Zrotation
									JOINT LeftHandPinky2
									{
										OFFSET 2.861649 0.000000 0.000000
										CHANNELS 3 Xrotation Yrotation Zrotation
										JOINT LeftHandPinky3
										{
											OFFSET 2.863380 0.000000 0.000000
											CHANNELS 3 Xrotation Yrotation Zrotation
											End Site
											{
												OFFSET -0.843597 2.711159 0.369971
											}
										}
									}
								}
							}
							JOINT LSleeve
							{
								OFFSET 6.676277 -0.344902 -1.011730
								CHANNELS 3 Xrotation Yrotation Zrotation
								End Site
								{
									OFFSET 0.000000 14.885353 0.000000
								}
							}
						}
					}
				}
				JOINT RightShoulder
				{
					OFFSET -6.197800 13.665199 -4.064700
					CHANNELS 3 Xrotation Yrotation Zrotation
					JOINT RightArm
					{
						OFFSET -7.778100 -0.187103 -1.709300
						CHANNELS 3 Xrotation Yrotation Zrotation
						JOINT RightForeArm
						{
							OFFSET -22.049376 0.000000 0.000000
							CHANNELS 3 Xrotation Yrotation Zrotation
							JOINT RightHand
							{
								OFFSET -23.009392 0.000000 0.000000
								CHANNELS 3 Xrotation Yrotation Zrotation
								JOINT RightHandThumb1
								{
									OFFSET -3.507191 -2.063065 3.133727
									CHANNELS 3 Xrotation Yrotation Zrotation
									JOINT RightHandThumb2
									{
										OFFSET -3.101337 -1.790558 1.790558
										CHANNELS 3 Xrotation Yrotation Zrotation
										JOINT RightHandThumb3
										{
											OFFSET -3.058640 -1.765907 1.765906
											CHANNELS 3 Xrotation Yrotation Zrotation
											End Site
											{
												OFFSET 0.415260 3.926476 -0.049563
											}
										}
									}
								}
								JOINT RightHandIndex1
								{
									OFFSET -11.334419 -0.901459 3.706815
									CHANNELS 3 Xrotation Yrotation Zrotation
									JOINT RightHandIndex2
									{
										OFFSET -3.283112 0.000000 0.000000
										CHANNELS 3 Xrotation Yrotation Zrotation
										JOINT RightHandIndex3
										{
											OFFSET -3.323853 0.000000 0.000000
											CHANNELS 3 Xrotation Yrotation Zrotation
											End Site
											{
												OFFSET 1.135597 3.097809 0.402452
											}
										}
									}
								}
								JOINT RightHandMiddle1
								{
									OFFSET -11.335861 0.000000 0.000000
									CHANNELS 3 Xrotation Yrotation Zrotation
									JOINT RightHandMiddle2
									{
										OFFSET -3.410492 0.000000 0.000000
										CHANNELS 3 Xrotation Yrotation Zrotation
										JOINT RightHandMiddle3
										{
											OFFSET -3.312172 0.000000 0.000000
											CHANNELS 3 Xrotation Yrotation Zrotation
											End Site
											{
												OFFSET 1.150200 3.080154 0.400270
											}
										}
									}
								}
								JOINT RightHandRing1
								{
									OFFSET -11.514786 -0.013176 -3.003090
									CHANNELS 3 Xrotation Yrotation Zrotation
									JOINT RightHandRing2
									{
										OFFSET -3.053307 0.000000 0.000000
										CHANNELS 3 Xrotation Yrotation Zrotation
										JOINT RightHandRing3
										{
											OFFSET -3.295807 0.000000 0.000000
											CHANNELS 3 Xrotation Yrotation Zrotation
											End Site
											{
												OFFSET 1.281006 3.013344 0.375733
											}
										}
									}
								}
								JOINT RightHandPinky1
								{
									OFFSET -10.518692 -0.960396 -5.730441
									CHANNELS 3 Xrotation Yrotation Zrotation
									JOINT RightHandPinky2
									{
										OFFSET -2.861649 0.000000 0.000000
										CHANNELS 3 Xrotation Yrotation Zrotation
										JOINT RightHandPinky3
										{
											OFFSET -2.863380 0.000000 0.000000
											CHANNELS 3 Xrotation Yrotation Zrotation
											End Site
											{
												OFFSET 0.843597 2.711159 0.369971
											}
										}
									}
								}
							}
							JOINT RSleeve
							{
								OFFSET -6.676277 -0.344902 -1.011730
								CHANNELS 3 Xrotation Yrotation Zrotation
								End Site
								{
									OFFSET 0.000000 14.885353 0.000000
								}
							}
						}
					}
				}
				JOINT Backpack
				{
					OFFSET 0.000000 -2.471497 36.677502
					CHANNELS 3 Xrotation Yrotation Zrotation
					End Site
					{
						OFFSET 0.000000 20.427315 0.000000
					}
				}
				JOINT Hood
				{
					OFFSET 0.000000 18.754097 -10.431000
					CHANNELS 3 Xrotation Yrotation Zrotation
					JOINT Hood1
					{
						OFFSET 0.000000 -5.011002 -7.685901
						CHANNELS 3 Xrotation Yrotation Zrotation
						End Site
						{
							OFFSET 0.000000 9.175140 0.000000
						}
					}
				}
				JOINT LHoodieString
				{
					OFFSET 5.250500 16.397697 3.089900
					CHANNELS 3 Xrotation Yrotation Zrotation
					JOINT LHoodieString1
					{
						OFFSET 0.257700 -6.364304 3.694600
						CHANNELS 3 Xrotation Yrotation Zrotation
						JOINT LHoodieString2
						{
							OFFSET 0.000000 -9.643799 2.679100
							CHANNELS 3 Xrotation Yrotation Zrotation
							End Site
							{
								OFFSET 0.000000 10.009018 0.000000
							}
						}
					}
				}
				JOINT RHoodieString
				{
					OFFSET -5.250500 16.397697 3.089900
					CHANNELS 3 Xrotation Yrotation Zrotation
					JOINT RHoodieString1
					{
						OFFSET -0.257700 -6.364304 3.694600
						CHANNELS 3 Xrotation Yrotation Zrotation
						JOINT RHoodieString2
						{
							OFFSET 0.000000 -9.643799 2.679100
							CHANNELS 3 Xrotation Yrotation Zrotation
							End Site
							{
								OFFSET 0.000000 10.009018 0.000000
							}
						}
					}
				}
			}
			JOINT LBackpack_Strap
			{
				OFFSET 15.223200 -7.719803 -6.610900
				CHANNELS 3 Xrotation Yrotation Zrotation
				End Site
				{
					OFFSET 0.000000 16.040596 0.000000
				}
			}
			JOINT RBackpack_Strap
			{
				OFFSET -15.223000 -7.719803 -6.610900
				CHANNELS 3 Xrotation Yrotation Zrotation
				End Site
				{
					OFFSET 0.000000 16.040596 0.000000
				}
			}
		}
	}
	JOINT BoyFacialAnim_Joint
	{
		OFFSET 1.000000 -82.208099 -1.550900
		CHANNELS 3 Xrotation Yrotation Zrotation
		End Site
		{
			OFFSET 0.000000 30.012791 0.000000
		}
	}
}
MOTION
Frames: 4
Frame Time: 0.016667
-0.267313 70.604881 0.121598 -5.065253 -42.520800 0.340546 0.000000 -0.000001 -0.000000 -32.847640 7.600895 17.498316 59.229809 -6.566491 4.271036 -23.775914 -8.051249 -14.618140 -0.000000 0.000003 -0.000000 -0.000000 0.000003 -0.000000 0.000002 -0.000000 0.000001 -25.074080 -10.660858 -28.105059 58.878621 -9.588132 -7.735722 -25.613097 -6.173832 21.445078 -0.000000 0.000001 -0.000000 -0.000000 0.000001 -0.000000 -0.000000 0.000000 -0.000003 9.465457 7.183108 -1.722573 2.187715 0.989902 -0.914787 2.202830 0.982769 -0.893560 0.084655 13.220547 4.538682 8.920924 20.138145 -4.130232 0.000001 0.000000 0.000000 0.000001 0.000000 0.000000 0.000001 0.000000 0.000000 1.117177 3.546352 -8.633308 -53.487030 4.935513 -51.503004 -0.000046 -106.358060 -0.000059 1.988599 -7.706147 -15.869246 -6.141211 -11.690799 -6.761702 9.914148 42.595508 3.409870 0.000003 0.000002 -0.000002 0.255327 3.378233 -45.814354 5.654089 5.847763 -88.067455 -0.000002 -0.000000 -0.000002 -0.461472 3.841601 -39.722697 6.450760 5.820353 -95.892864 -0.000001 -0.000000 -0.000002 0.469727 4.966829 -39.799447 8.181038 5.368625 -113.502998 -0.000001 0.000000 -0.000000 -3.762414 9.063690 -45.253825 5.342534 5.829020 -85.005290 0.000000 0.000001 -0.000000 -0.000000 0.000000 -0.000001 3.036126 13.027193 -5.371404 -48.713719 27.172835 83.457071 0.000048 105.988321 -0.000064 -8.345374 17.548090 8.775679 -7.341093 13.749665 7.412333 9.855805 -44.489093 -3.903238 0.000001 -0.000003 0.000001 -0.124372 -2.384795 45.108874 4.500600 -4.654554 88.071178 -0.000001 -0.000000 0.000005 -0.761626 -2.932904 39.031055 5.133894 -4.632763 95.881670 -0.000001 -0.000001 0.000005 0.154763 -4.068814 39.122668 6.509713 -4.273604 113.462870 -0.000000 -0.000001 0.000002 -4.198875 -8.025514 44.637779 4.252926 -4.639655 85.014805 0.000001 -0.000001 0.000002 -0.000001 0.000001 -0.000002 -0.000000 -0.000000 0.000000 -0.000000 -0.000000 0.000000 -0.000000 -0.000000 0.000000 -0.000000 -0.000000 0.000000 -0.000000 -0.000000 0.000000 -0.000001 -0.000000 0.000000 -0.000000 -0.000000 0.000000 -0.000000 -0.000000 0.000000 -0.000001 -0.000000 0.000000 0.000001 -0.000001 -0.000000 0.000001 -0.000001 -0.000000 0.000000 -0.000001 -0.000000 
-0.267997 70.625923 0.145379 -4.994773 -42.508417 0.288829 0.000000 -0.000003 -0.000000 -32.898528 7.574334 17.704757 59.179204 -6.396607 4.092721 -23.783415 -8.243640 -14.618352 0.000000 -0.000001 -0.000000 0.000000 -0.000001 0.000000 -0.000000 0.000000 0.000000 -25.152254 -10.905222 -28.155300 58.791639 -9.341186 -7.701666 -25.601118 -6.152748 21.299692 0.000000 0.000001 0.000000 0.000000 0.000001 0.000000 -0.000002 -0.000001 -0.000003 9.447473 7.228277 -1.734267 2.175733 1.007917 -0.914784 2.190585 1.000776 -0.893561 0.049152 13.241658 4.506406 8.795708 20.178667 -4.038380 0.000000 0.000000 0.000000 0.000000 0.000000 0.000000 0.000000 0.000000 0.000000 1.060112 3.401039 -8.204987 -53.252632 4.575417 -50.958935 0.000005 -106.452268 0.000000 2.080126 -7.637612 -15.690647 -6.141211 -11.690796 -6.761707 9.914137 42.595512 3.409870 0.000001 -0.000003 0.000003 0.255329 3.378237 -45.814354 5.654092 5.847762 -88.067455 -0.000000 -0.000001 -0.000002 -0.461470 3.841602 -39.722697 6.450755 5.820356 -95.892857 0.000001 0.000000 -0.000002 0.469727 4.966832 -39.799451 8.181038 5.368626 -113.502998 0.000002 -0.000001 -0.000002 -3.762411 9.063691 -45.253825 5.342536 5.829022 -85.005290 0.000002 0.000001 0.000002 -0.000000 -0.000001 -0.000002 2.992700 12.851420 -5.316450 -49.165662 27.692719 83.232583 0.000100 105.878048 -0.000107 -8.322230 17.530741 8.373436 -7.341094 13.749664 7.412328 9.855805 -44.489096 -3.903240 0.000001 0.000001 0.000002 -0.124371 -2.384797 45.108874 4.500600 -4.654555 88.071171 -0.000001 0.000000 0.000002 -0.761625 -2.932901 39.031051 5.133899 -4.632760 95.881663 0.000003 0.000001 0.000002 0.154760 -4.068814 39.122668 6.509717 -4.273600 113.462863 -0.000000 0.000001 0.000001 -4.198874 -8.025511 44.637783 4.252927 -4.639654 85.014798 -0.000003 0.000001 -0.000001 -0.000001 -0.000004 0.000001 0.000000 -0.000004 0.000000 0.000000 -0.000004 0.000000 0.000000 -0.000004 0.000000 0.000000 -0.000004 0.000000 0.000000 -0.000004 0.000000 -0.000001 -0.000002 -0.000000 0.000000 -0.000004 0.000000 0.000000 -0.000004 0.000000 -0.000001 -0.000002 -0.000000 0.000000 -0.000000 0.000000 0.000000 -0.000000 0.000000 0.000000 -0.000003 -0.000000 
-0.272925 70.655373 0.184849 -4.920078 -42.527599 0.242558 -0.000000 -0.000000 0.000000 -32.938171 7.589500 17.925411 59.138783 -6.483817 3.918212 -23.772475 -8.315103 -14.505814 0.000000 0.000002 -0.000000 0.000000 0.000002 -0.000000 -0.000001 0.000000 0.000001 -25.175546 -11.062872 -28.209967 58.689425 -9.112093 -7.575594 -25.587292 -6.124543 21.118441 -0.000000 0.000000 0.000000 -0.000000 0.000000 0.000000 -0.000002 -0.000001 -0.000002 9.421541 7.244123 -1.751380 2.160458 1.014518 -0.917777 2.175228 1.007281 -0.896829 -0.002264 13.274982 4.469520 8.607457 20.275410 -3.937014 0.000000 -0.000000 0.000000 0.000000 -0.000000 0.000000 0.000000 -0.000000 0.000000 1.001847 3.254859 -7.754999 -53.008965 4.373915 -50.549291 0.000159 -106.685615 0.000178 2.320292 -7.487239 -15.637259 -6.141210 -11.690799 -6.761705 9.914146 42.595505 3.409867 0.000001 0.000003 -0.000000 0.255327 3.378231 -45.814348 5.654090 5.847759 -88.067455 0.000001 -0.000001 -0.000002 -0.461472 3.841597 -39.722693 6.450754 5.820355 -95.892857 -0.000003 -0.000001 -0.000002 0.469726 4.966828 -39.799447 8.181041 5.368625 -113.502998 0.000001 0.000001 -0.000002 -3.762413 9.063693 -45.253828 5.342539 5.829017 -85.005290 0.000003 -0.000002 -0.000001 0.000000 -0.000001 -0.000002 2.949115 12.677383 -5.252450 -49.612701 28.281056 83.025867 0.000163 105.788640 -0.000172 -8.265624 17.517740 7.916573 -7.341093 13.749666 7.412328 9.855796 -44.489089 -3.903238 -0.000001 -0.000005 -0.000000 -0.124369 -2.384797 45.108878 4.500603 -4.654554 88.071178 -0.000001 -0.000001 -0.000000 -0.761625 -2.932908 39.031055 5.133896 -4.632762 95.881670 -0.000000 -0.000001 -0.000000 0.154764 -4.068813 39.122668 6.509714 -4.273603 113.462870 -0.000001 -0.000000 0.000000 -4.198872 -8.025513 44.637776 4.252926 -4.639652 85.014798 0.000000 -0.000000 0.000000 -0.000001 0.000002 -0.000001 -0.000000 0.000000 0.000000 -0.000000 0.000000 0.000000 -0.000000 0.000000 0.000000 -0.000000 0.000000 0.000000 -0.000000 0.000000 0.000000 0.000000 0.000000 0.000000 -0.000000 0.000000 0.000000 -0.000000 0.000000 0.000000 0.000000 0.000000 0.000000 0.000000 0.000001 -0.000000 0.000000 0.000001 -0.000000 -0.000000 -0.000000 0.000000 
-0.277440 70.694832 0.243411 -4.838319 -42.595433 0.209495 0.000000 0.000002 -0.000000 -32.948792 7.662034 18.144077 59.082147 -6.682949 3.740821 -23.764523 -8.270343 -14.328656 -0.000000 -0.000000 -0.000000 -0.000000 -0.000000 -0.000000 -0.000002 0.000001 0.000000 -25.148365 -11.117594 -28.266653 58.570778 -8.798109 -7.359281 -25.555974 -6.179257 20.884746 0.000000 0.000001 0.000000 0.000000 0.000001 0.000000 0.000001 -0.000001 -0.000000 9.385997 7.235286 -1.777463 2.140902 1.011714 -0.925599 2.155733 1.004234 -0.904947 -0.072024 13.322203 4.429951 8.331897 20.440825 -3.819017 -0.000001 0.000000 0.000001 -0.000001 0.000000 0.000001 -0.000001 0.000000 0.000001 0.942417 3.109337 -7.280550 -52.751829 4.313180 -50.243391 0.000155 -107.038770 0.000155 2.688495 -7.265125 -15.676433 -6.141211 -11.690795 -6.761705 9.914142 42.595505 3.409857 0.000003 -0.000002 0.000001 0.255326 3.378235 -45.814354 5.654089 5.847764 -88.067455 -0.000000 -0.000001 -0.000002 -0.461473 3.841601 -39.722693 6.450757 5.820357 -95.892857 -0.000000 -0.000001 -0.000000 0.469724 4.966829 -39.799447 8.181038 5.368626 -113.502998 -0.000000 0.000002 -0.000000 -3.762415 9.063693 -45.253825 5.342539 5.829019 -85.005297 -0.000000 0.000000 0.000001 -0.000000 -0.000001 0.000000 2.906333 12.509025 -5.180290 -50.050650 28.941393 82.820818 0.000112 105.714260 -0.000115 -8.193996 17.536261 7.412591 -7.341097 13.749666 7.412326 9.855806 -44.489093 -3.903248 -0.000000 0.000001 -0.000001 -0.124372 -2.384796 45.108874 4.500600 -4.654556 88.071178 0.000001 0.000002 0.000000 -0.761628 -2.932905 39.031048 5.133895 -4.632762 95.881663 0.000002 0.000002 0.000002 0.154759 -4.068816 39.122664 6.509713 -4.273602 113.462870 -0.000001 0.000003 0.000001 -4.198875 -8.025510 44.637776 4.252931 -4.639654 85.014805 -0.000001 -0.000001 0.000002 0.000002 -0.000002 0.000001 -0.000000 -0.000002 -0.000000 -0.000000 -0.000002 -0.000000 -0.000000 -0.000002 -0.000000 -0.000000 -0.000002 -0.000000 -0.000000 -0.000002 -0.000000 -0.000001 0.000000 -0.000000 -0.000000 -0.000002 -0.000000 -0.000000 -0.000002 -0.000000 -0.000001 0.000000 -0.000000 0.000000 0.000000 0.000000 0.000000 0.000000 0.000000 0.000000 0.000002 -0.000000 
